<svg fill="#0673e0" height="200px" width="200px" version="1.1" id="Layer_1" xmlns="http://www.w3.org/2000/svg" xmlns:xlink="http://www.w3.org/1999/xlink" viewBox="0 0 512 512" xml:space="preserve"><g id="SVGRepo_bgCarrier" stroke-width="0"></g><g id="SVGRepo_tracerCarrier" stroke-linecap="round" stroke-linejoin="round"></g><g id="SVGRepo_iconCarrier"> <g> <g> <path d="M486.881,59.858H25.119C11.268,59.858,0,71.126,0,84.977v273.637c0,13.851,11.268,25.119,25.119,25.119h171.557v52.376 h-26.188c-4.427,0-8.017,3.589-8.017,8.017c0,4.427,3.589,8.017,8.017,8.017h171.023c4.427,0,8.017-3.589,8.017-8.017 c0-4.427-3.589-8.017-8.017-8.017h-26.188v-52.376h171.557c13.851,0,25.119-11.268,25.119-25.119V84.977 C512,71.126,500.732,59.858,486.881,59.858z M299.29,436.109h-86.58v-52.376h86.58V436.109z M495.967,358.614 c0,5.01-4.076,9.086-9.086,9.086H25.119c-5.01,0-9.086-4.076-9.086-9.086v-9.086h479.933V358.614z M495.967,333.495H16.033V84.977 c0-5.01,4.076-9.086,9.086-9.086h461.762c5.01,0,9.086,4.076,9.086,9.086V333.495z"></path> </g> </g> <g> <g> <path d="M144.835,102.614c-56.287,0-102.079,45.792-102.079,102.079s45.792,102.079,102.079,102.079 s102.079-45.792,102.079-102.079S201.122,102.614,144.835,102.614z M144.835,118.647c20.842,0,39.974,7.453,54.88,19.828 l-25.12,25.12c-8.369-6.078-18.65-9.675-29.761-9.675c-25.268,0-46.278,18.556-50.133,42.756H59.176 C63.234,152.977,100.093,118.647,144.835,118.647z M66.073,239.281c-3.644-8.265-6.026-17.2-6.896-26.572h35.526 c0.513,3.217,1.324,6.336,2.414,9.325L66.073,239.281z M136.818,290.352c-26.099-2.423-48.848-16.544-62.945-37.065l31.06-17.255 c7.736,9.827,19.006,16.742,31.885,18.794V290.352z M110.096,204.693c0-19.155,15.584-34.739,34.739-34.739 c19.155,0,34.739,15.584,34.739,34.739s-15.584,34.739-34.739,34.739C125.68,239.432,110.096,223.848,110.096,204.693z M152.852,290.352v-35.526c24.2-3.855,42.756-24.866,42.756-50.133c0-11.111-3.597-21.392-9.675-29.761l25.12-25.12 c12.375,14.907,19.828,34.039,19.828,54.881C230.881,249.435,196.551,286.295,152.852,290.352z"></path> </g> </g> <g> <g> <path d="M461.228,205.228H290.205c-4.427,0-8.017,3.589-8.017,8.017s3.589,8.017,8.017,8.017h171.023 c4.427,0,8.017-3.589,8.017-8.017S465.655,205.228,461.228,205.228z"></path> </g> </g> <g> <g> <path d="M315.858,247.983h-25.653c-4.427,0-8.017,3.589-8.017,8.017s3.589,8.017,8.017,8.017h25.653 c4.427,0,8.017-3.589,8.017-8.017S320.285,247.983,315.858,247.983z"></path> </g> </g> <g> <g> <path d="M418.472,247.983h-68.409c-4.427,0-8.017,3.589-8.017,8.017s3.589,8.017,8.017,8.017h68.409 c4.427,0,8.017-3.589,8.017-8.017S422.899,247.983,418.472,247.983z"></path> </g> </g> <g> <g> <path d="M444.125,282.188h-94.063c-4.427,0-8.017,3.589-8.017,8.017s3.589,8.017,8.017,8.017h94.063 c4.427,0,8.017-3.589,8.017-8.017S448.553,282.188,444.125,282.188z"></path> </g> </g> <g> <g> <path d="M315.858,282.188h-25.653c-4.427,0-8.017,3.589-8.017,8.017s3.589,8.017,8.017,8.017h25.653 c4.427,0,8.017-3.589,8.017-8.017S320.285,282.188,315.858,282.188z"></path> </g> </g> <g> <g> <path d="M290.205,128.267c-4.427,0-8.017,3.589-8.017,8.017v42.756c0,4.427,3.589,8.017,8.017,8.017s8.017-3.589,8.017-8.017 v-42.756C298.221,131.857,294.632,128.267,290.205,128.267z"></path> </g> </g> <g> <g> <path d="M392.818,128.267c-4.427,0-8.017,3.589-8.017,8.017v42.756c0,4.427,3.589,8.017,8.017,8.017 c4.427,0,8.017-3.589,8.017-8.017v-42.756C400.835,131.857,397.246,128.267,392.818,128.267z"></path> </g> </g> <g> <g> <path d="M358.614,153.921c-4.427,0-8.017,3.589-8.017,8.017v17.102c0,4.427,3.589,8.017,8.017,8.017s8.017-3.589,8.017-8.017 v-17.102C366.63,157.51,363.041,153.921,358.614,153.921z"></path> </g> </g> <g> <g> <path d="M427.023,153.921c-4.427,0-8.017,3.589-8.017,8.017v17.102c0,4.427,3.589,8.017,8.017,8.017 c4.427,0,8.017-3.589,8.017-8.017v-17.102C435.04,157.51,431.45,153.921,427.023,153.921z"></path> </g> </g> <g> <g> <path d="M324.409,111.165c-4.427,0-8.017,3.589-8.017,8.017v59.858c0,4.427,3.589,8.017,8.017,8.017s8.017-3.589,8.017-8.017 v-59.858C332.426,114.754,328.837,111.165,324.409,111.165z"></path> </g> </g> <g> <g> <path d="M461.228,111.165c-4.427,0-8.017,3.589-8.017,8.017v59.858c0,4.427,3.589,8.017,8.017,8.017 c4.427,0,8.017-3.589,8.017-8.017v-59.858C469.244,114.754,465.655,111.165,461.228,111.165z"></path> </g> </g> </g></svg>